<?xml version="1.0" encoding="UTF-8" standalone="no"?>
<svg id="svg2" xmlns:rdf="http://www.w3.org/1999/02/22-rdf-syntax-ns#" xmlns="http://www.w3.org/2000/svg" height="217.98" width="203.07" version="1.1" xmlns:cc="http://creativecommons.org/ns#" xmlns:dc="http://purl.org/dc/elements/1.1/" viewBox="0 0 203.06862 217.98242">
 <metadata id="metadata15">
  <rdf:RDF>
   <cc:Work rdf:about="">
    <dc:format>image/svg+xml</dc:format>
    <dc:type rdf:resource="http://purl.org/dc/dcmitype/StillImage"/>
    <dc:title/>
   </cc:Work>
  </rdf:RDF>
 </metadata>
 <g id="g4313" transform="translate(22.172 -870.22)">
  <g id="pokemon-gym">
   <path id="main-outline" d="m155.38 893.16c-17.46 9.25-34.98 18.74-52.41 27.84-13.068-23.83-44.584-35.46-69.755-24.73-23.484 9.42-39.42 35.75-34.49 60.95 3.3015 24.999 25.945 45.298 51.133 47.027 2.0293 0.2233 5.2443 0.3127 5.2443 0.3127l0.72739 2.7043c5.4421 20.315 10.887 40.629 16.327 60.944 29.58-59.328 59.158-118.66 88.74-177.98z" fill-rule="evenodd" stroke="#000000" stroke-width="1.5" fill="#ffffff"/>
   <g id="ball-outline">
    <path id="ball-outline-top" d="m54 898.36c-27.614 0-50 22.386-50 50 0.010146 6.4626 1.273 12.862 3.7188 18.844l25.922-13.78c-0.419-1.65-0.634-3.35-0.641-5.06 0-11.598 9.402-21 21-21 5.9388 0.013 11.594 2.5399 15.566 6.9551l25.905-13.78c-9.267-13.84-24.816-22.15-41.471-22.18z" fill-rule="evenodd" stroke="#000000" stroke-width="3" fill="#ff0000"/>
    <path id="path4143" d="m146.31 12.846-45.92 24.461-25.667 13.648c0.409 1.651 0.636 3.342 0.644 5.043v0.002c0 11.796-9.571 21.367-21.367 21.367-6.011-0.013-11.726-2.568-15.762-7.01l-25.269 13.436c9.21 13.623 24.569 21.817 41.031 21.837 1.845-0.01 3.688-0.12 5.521-0.33 0.181-0.02 0.349 0.09 0.397 0.27l14.041 52.39zm-7.46 7.713-63.512 127.4c-0.151 0.3-0.594 0.25-0.682-0.07-4.125-15.39-8.253-30.79-12.377-46.18-16.249 2.97-33.823-3.488-44.154-16.401-0.142-0.179-0.088-0.443 0.113-0.551 6.331-3.426 12.817-6.824 19.203-10.237 0.135-0.071 0.3-0.052 0.414 0.049 2.698 2.388 5.954 4.14 9.416 5.139 0.006 0.001 0.012 0.002 0.018 0.004 15.991 5.482 33.374-10.636 31.024-26.927z" fill-rule="evenodd" transform="translate(0 892.36)" fill="#000000"/>
    <path id="ball-outline-center" d="m54 41a15 15 0 0 0 -15 15 15 15 0 0 0 15 15 15 15 0 0 0 15 -15 15 15 0 0 0 -15 -15zm0 4a11 11 0 0 1 11 11 11 11 0 0 1 -11 11 11 11 0 0 1 -11 -11 11 11 0 0 1 11 -11z" transform="translate(0 892.36)" fill="#000000"/>
   </g>
  </g>
 </g>
</svg>
